<?xml version="1.0" encoding="UTF-8"?>
<svg id="Capa_2" data-name="Capa 2" xmlns="http://www.w3.org/2000/svg" xmlns:xlink="http://www.w3.org/1999/xlink" viewBox="0 0 221.29 276">
  <defs>
    <style>
      .cls-1 {
        fill: url(#Degradado_sin_nombre_16-2);
      }

      .cls-2 {
        fill: #e31013;
      }

      .cls-3 {
        fill: url(#Degradado_sin_nombre_16);
      }

      .cls-4 {
        fill: url(#Degradado_sin_nombre_8);
        isolation: isolate;
        opacity: .6;
      }

      .cls-5 {
        fill: url(#Degradado_sin_nombre_7);
      }
    </style>
    <linearGradient id="Degradado_sin_nombre_7" data-name="Degradado sin nombre 7" x1="110.64" y1="205.81" x2="110.64" y2="-94.55" gradientTransform="translate(0 203.33) scale(1 -1)" gradientUnits="userSpaceOnUse">
      <stop offset="0" stop-color="#ece9e7"/>
      <stop offset="0" stop-color="#e6e1de"/>
      <stop offset=".02" stop-color="#d7d4d2"/>
      <stop offset=".06" stop-color="#b0b1b4"/>
      <stop offset=".08" stop-color="#94989d"/>
      <stop offset=".11" stop-color="#a7aaae"/>
      <stop offset=".15" stop-color="#bfc0c3"/>
      <stop offset=".19" stop-color="#d1d2d4"/>
      <stop offset=".25" stop-color="#dededf"/>
      <stop offset=".32" stop-color="#e6e5e6"/>
      <stop offset=".47" stop-color="#e8e7e8"/>
      <stop offset=".63" stop-color="#e6e5e6"/>
      <stop offset=".72" stop-color="#dededf"/>
      <stop offset=".78" stop-color="#d1d2d4"/>
      <stop offset=".83" stop-color="#bfc0c3"/>
      <stop offset=".88" stop-color="#a7aaae"/>
      <stop offset=".91" stop-color="#94989d"/>
      <stop offset="1" stop-color="#dbdbdc"/>
      <stop offset="1" stop-color="#b1b0b2"/>
    </linearGradient>
    <linearGradient id="Degradado_sin_nombre_8" data-name="Degradado sin nombre 8" x1="129.54" y1="256.93" x2="129.54" y2="-209.21" gradientTransform="translate(0 203.33) scale(1 -1)" gradientUnits="userSpaceOnUse">
      <stop offset="0" stop-color="#040404"/>
      <stop offset="1" stop-color="#414141" stop-opacity="0"/>
    </linearGradient>
    <linearGradient id="Degradado_sin_nombre_16" data-name="Degradado sin nombre 16" x1="21.23" y1="69.74" x2="221.23" y2="-12.4" gradientTransform="translate(0 203.33) scale(1 -1)" gradientUnits="userSpaceOnUse">
      <stop offset="0" stop-color="#ece9e7"/>
      <stop offset="0" stop-color="#e6e1de"/>
      <stop offset=".04" stop-color="#d7d3d1"/>
      <stop offset=".11" stop-color="#b0afae"/>
      <stop offset=".21" stop-color="#727677"/>
      <stop offset=".26" stop-color="#4b5255"/>
      <stop offset=".27" stop-color="#4d5457"/>
      <stop offset=".38" stop-color="#8f9395"/>
      <stop offset=".47" stop-color="#bfc0c2"/>
      <stop offset=".53" stop-color="#dddcde"/>
      <stop offset=".57" stop-color="#e8e7e8"/>
      <stop offset=".63" stop-color="#dededf"/>
      <stop offset=".73" stop-color="#c4c5c8"/>
      <stop offset=".86" stop-color="#9a9da2"/>
      <stop offset=".88" stop-color="#94989d"/>
      <stop offset="1" stop-color="#dbdbdc"/>
      <stop offset="1" stop-color="#b1b0b2"/>
    </linearGradient>
    <linearGradient id="Degradado_sin_nombre_16-2" data-name="Degradado sin nombre 16" x1="110.64" y1="191.35" x2="110.64" y2="-72.83" xlink:href="#Degradado_sin_nombre_16"/>
  </defs>
  <g id="Capa_1-2" data-name="Capa 1">
    <path class="cls-5" d="m203.69,153.7c0-.25-.07-.49-.1-.74-1.04-8.26-3.23-16.34-6.51-24-9.51-22.47-27.39-40.35-49.86-49.87-.61-.26-1.23-.48-1.84-.73l-1.59-.64-1.59-.59c-2.62-.95-5.29-1.77-8-2.46l-.29-.08c-3.72-.95-7.49-1.65-11.3-2.12l-11.75-17.58-11.77,17.61-.76.11c-8.29,1.03-16.4,3.22-24.08,6.51-11.12,4.73-21.24,11.54-29.79,20.08-8.55,8.57-15.41,18.68-20.2,29.8-3.43,7.87-5.69,16.19-6.71,24.71L0,165.47l17.6,11.77c1,8.53,3.24,16.88,6.66,24.76,4.79,11.12,11.65,21.23,20.2,29.8,8.55,8.54,18.67,15.35,29.79,20.07,7.92,3.39,16.29,5.62,24.85,6.61l11.77,17.52,11.77-17.6,1.6-.23,1.13-.16c1.3-.2,2.59-.42,3.88-.67l1.22-.26c.91-.2,1.82-.4,2.72-.62l1.59-.4c.85-.22,1.69-.47,2.53-.71,1-.31,2.07-.65,3.1-1l1.25-.43c1.87-.66,3.73-1.35,5.56-2.14,22.45-9.49,40.34-27.34,49.86-49.78,3.28-7.66,5.47-15.74,6.51-24,0-.24.07-.47.1-.71l17.6-11.77-17.6-11.82Zm-42.88,33.05c-2.73,6.46-6.69,12.32-11.68,17.25-5,4.91-10.89,8.84-17.35,11.57-13.55,5.67-28.8,5.67-42.35,0-6.46-2.73-12.35-6.66-17.35-11.57-10.27-10.18-16.02-24.07-15.93-38.53-.06-7.27,1.39-14.48,4.25-21.17,5.56-13.03,15.96-23.39,29-28.92,13.55-5.68,28.8-5.68,42.35,0,13.04,5.53,23.44,15.89,29,28.92,2.87,6.69,4.32,13.89,4.26,21.17.07,7.31-1.36,14.55-4.2,21.28Z"/>
    <polygon class="cls-2" points="110.67 37.17 72.83 65.36 110.74 0 148.4 65.5 110.67 37.17"/>
    <polygon class="cls-4" points="110.67 37.17 110.74 0 148.4 65.5 110.67 37.17"/>
    <path class="cls-3" d="m203.59,153c-1.04-8.26-3.23-16.34-6.51-24-4.72-11.13-11.54-21.25-20.08-29.8-6.31-6.33-13.49-11.72-21.33-16l-18.67,34.8c4.43,2.45,8.5,5.5,12.09,9.07,4.95,4.96,8.92,10.81,11.68,17.25,2.87,6.69,4.32,13.89,4.26,21.17.08,14.45-5.65,28.33-15.9,38.51-5,4.91-10.89,8.84-17.35,11.57-13.55,5.67-28.8,5.67-42.35,0-1.3-.56-2.55-1.19-3.79-1.83l-18.58,34.63c2.33,1.23,4.72,2.39,7.19,3.45,7.92,3.39,16.29,5.62,24.85,6.61l11.77,17.57,11.77-17.6,1.6-.23,1.13-.16c1.3-.2,2.59-.42,3.88-.67l1.22-.26c.91-.2,1.82-.4,2.72-.62l1.59-.4c.85-.22,1.69-.47,2.53-.71,1-.31,2.07-.65,3.1-1l1.25-.43c1.87-.66,3.73-1.35,5.56-2.14,22.45-9.49,40.34-27.34,49.86-49.78,3.28-7.66,5.47-15.74,6.51-24,0-.24.07-.47.1-.71l17.6-11.77-17.6-11.77c-.03-.3-.07-.54-.1-.75Z"/>
    <path class="cls-1" d="m110.86,62.09l8.45,12.63,1,1.53,1.81.22c3.64.44,7.24,1.1,10.79,2h.3c2.58.66,5.14,1.46,7.62,2.36l1.48.55c.52.2,1,.4,1.55.62l.75.29,1,.41c21.53,9.1,38.66,26.24,47.76,47.77,3.12,7.31,5.21,15.02,6.22,22.9l.06.45v.29l.35,1.89,1.51,1,12.64,8.45-12.64,8.45-1.52,1-.22,1.83v.28l-.06.39c-1,7.9-3.09,15.62-6.21,22.94-9.11,21.53-26.24,38.66-47.77,47.76-1.57.68-3.26,1.33-5.31,2.05-.26.1-.53.19-.79.27l-.4.14c-1,.33-2,.64-3,.94-.8.24-1.6.47-2.4.68l-1.53.39c-.86.2-1.73.4-2.59.58l-.49.11-.69.15c-1.15.23-2.36.44-3.69.64l-.76.11h-.34l-.44.06-1.09.16-1.82.22-1,1.52-8.44,12.64-8.45-12.63-1-1.53-1.83-.22c-8.18-.95-16.17-3.08-23.74-6.32-10.66-4.52-20.35-11.05-28.55-19.22-8.19-8.23-14.75-17.92-19.36-28.57-3.26-7.52-5.42-15.46-6.4-23.6l-.23-1.81-1.52-1-12.63-8.45,12.53-8.41,1.52-1,.23-1.82c.98-8.14,3.14-16.08,6.4-23.6,4.61-10.66,11.17-20.35,19.36-28.58,8.21-8.16,17.9-14.67,28.55-19.2,7.34-3.13,15.08-5.23,23-6.23l.42-.06h.31l1.83-.22,1-1.53,8.44-12.63m-.15,161.73c7.78.03,15.48-1.53,22.64-4.58,6.92-2.93,13.23-7.13,18.59-12.39,11.04-10.93,17.21-25.85,17.13-41.38.05-7.82-1.51-15.57-4.59-22.76-5.98-13.97-17.14-25.08-31.13-31-14.55-6.11-30.94-6.11-45.49,0-13.99,5.92-25.15,17.03-31.13,31-3.07,7.19-4.63,14.94-4.58,22.76-.09,15.53,6.08,30.45,17.12,41.38,5.36,5.26,11.67,9.46,18.59,12.39,7.23,3.07,15,4.63,22.85,4.58m.15-168.93l-11.74,17.57-.76.11c-8.29,1.03-16.4,3.22-24.08,6.51-11.12,4.73-21.24,11.54-29.79,20.08-8.55,8.57-15.41,18.68-20.2,29.8-3.43,7.87-5.69,16.19-6.71,24.71L0,165.47l17.6,11.77c1,8.53,3.24,16.88,6.66,24.76,4.79,11.12,11.65,21.23,20.2,29.8,8.55,8.54,18.67,15.35,29.79,20.07,7.92,3.39,16.29,5.62,24.85,6.61l11.77,17.52,11.77-17.6,1.6-.23,1.13-.16c1.3-.2,2.59-.42,3.88-.67l1.22-.26c.91-.2,1.82-.4,2.72-.62l1.59-.4c.85-.22,1.69-.47,2.53-.71,1-.31,2.07-.65,3.1-1l1.25-.43c1.87-.66,3.73-1.35,5.56-2.14,22.45-9.49,40.34-27.34,49.86-49.78,3.28-7.66,5.47-15.74,6.51-24,0-.24.07-.47.1-.71l17.6-11.77-17.6-11.77c0-.25-.07-.49-.1-.74-1.04-8.26-3.23-16.34-6.51-24-9.51-22.47-27.39-40.35-49.86-49.87-.61-.26-1.23-.48-1.84-.73l-1.59-.64-1.59-.59c-2.62-.95-5.29-1.77-8-2.46l-.29-.08c-3.72-.95-7.49-1.65-11.3-2.12l-11.75-17.63-.03.04Zm-.15,164.93c-7.31.05-14.55-1.4-21.28-4.25-6.45-2.75-12.33-6.68-17.32-11.61-10.27-10.18-16.02-24.07-15.93-38.53-.06-7.27,1.39-14.48,4.25-21.17,5.56-13.03,15.96-23.39,29-28.92,13.55-5.68,28.8-5.68,42.35,0,13.04,5.53,23.44,15.89,29,28.92,2.87,6.69,4.32,13.89,4.26,21.17.09,14.45-5.63,28.34-15.88,38.53-5,4.91-10.89,8.84-17.35,11.57-6.66,2.84-13.83,4.29-21.07,4.25l-.03.04Z"/>
  </g>
</svg>