<svg xmlns="http://www.w3.org/2000/svg" xmlns:xlink="http://www.w3.org/1999/xlink" viewBox="0 0 1075.5 276.03"><defs><style>.cls-1{isolation:isolate;}.cls-2{fill:url(#linear-gradient);}.cls-3{fill:url(#linear-gradient-2);}.cls-4{fill:url(#linear-gradient-3);}.cls-5{fill:url(#linear-gradient-4);}.cls-6{fill:url(#linear-gradient-5);}.cls-7{fill:url(#linear-gradient-6);}.cls-8{fill:url(#linear-gradient-7);}.cls-9{fill:#e31013;}.cls-10{opacity:0.6;fill:url(#linear-gradient-8);}.cls-10,.cls-12{mix-blend-mode:multiply;}.cls-11{fill:url(#Steel_01);}.cls-12{opacity:0.3;}.cls-13{fill:url(#Steel_01-2);}.cls-14{fill:url(#Steel_01-3);}.cls-15{fill:url(#Steel_01-4);}.cls-16{fill:url(#Steel_01-5);}.cls-17{fill:url(#Steel_01-6);}.cls-18{fill:url(#Steel_01-7);}.cls-19{fill:url(#Steel_01-8);}</style><linearGradient id="linear-gradient" x1="89.9" y1="-2.48" x2="89.9" y2="297.88" gradientUnits="userSpaceOnUse"><stop offset="0" stop-color="#ece9e7"/><stop offset="0" stop-color="#e6e1de"/><stop offset="0.02" stop-color="#d7d4d2"/><stop offset="0.06" stop-color="#b0b1b4"/><stop offset="0.08" stop-color="#94989d"/><stop offset="0.11" stop-color="#a7aaae"/><stop offset="0.15" stop-color="#bfc0c3"/><stop offset="0.19" stop-color="#d1d2d4"/><stop offset="0.25" stop-color="#dededf"/><stop offset="0.32" stop-color="#e6e5e6"/><stop offset="0.47" stop-color="#e8e7e8"/><stop offset="0.63" stop-color="#e6e5e6"/><stop offset="0.72" stop-color="#dededf"/><stop offset="0.78" stop-color="#d1d2d4"/><stop offset="0.83" stop-color="#bfc0c3"/><stop offset="0.88" stop-color="#a7aaae"/><stop offset="0.91" stop-color="#94989d"/><stop offset="1" stop-color="#dbdbdc"/><stop offset="1" stop-color="#b1b0b2"/></linearGradient><linearGradient id="linear-gradient-2" x1="251.01" y1="-2.48" x2="251.01" y2="297.88" xlink:href="#linear-gradient"/><linearGradient id="linear-gradient-3" x1="578.25" y1="-2.48" x2="578.25" y2="297.88" xlink:href="#linear-gradient"/><linearGradient id="linear-gradient-4" x1="681.01" y1="-2.48" x2="681.01" y2="297.88" xlink:href="#linear-gradient"/><linearGradient id="linear-gradient-5" x1="811.4" y1="-2.48" x2="811.4" y2="297.88" xlink:href="#linear-gradient"/><linearGradient id="linear-gradient-6" x1="984.71" y1="-2.48" x2="984.71" y2="297.88" xlink:href="#linear-gradient"/><linearGradient id="linear-gradient-7" x1="421.62" y1="-2.48" x2="421.62" y2="297.88" xlink:href="#linear-gradient"/><linearGradient id="linear-gradient-8" x1="440.54" y1="-53.6" x2="440.54" y2="412.54" gradientUnits="userSpaceOnUse"><stop offset="0" stop-color="#040404"/><stop offset="1" stop-color="#414141" stop-opacity="0"/></linearGradient><linearGradient id="Steel_01" x1="332.22" y1="133.62" x2="532.22" y2="215.76" gradientUnits="userSpaceOnUse"><stop offset="0" stop-color="#ece9e7"/><stop offset="0" stop-color="#e6e1de"/><stop offset="0.04" stop-color="#d7d3d1"/><stop offset="0.11" stop-color="#b0afae"/><stop offset="0.21" stop-color="#727677"/><stop offset="0.26" stop-color="#4b5255"/><stop offset="0.27" stop-color="#4d5457"/><stop offset="0.38" stop-color="#8f9395"/><stop offset="0.47" stop-color="#bfc0c2"/><stop offset="0.53" stop-color="#dddcde"/><stop offset="0.57" stop-color="#e8e7e8"/><stop offset="0.63" stop-color="#dededf"/><stop offset="0.73" stop-color="#c4c5c8"/><stop offset="0.86" stop-color="#9a9da2"/><stop offset="0.88" stop-color="#94989d"/><stop offset="1" stop-color="#dbdbdc"/><stop offset="1" stop-color="#b1b0b2"/></linearGradient><linearGradient id="Steel_01-2" x1="89.9" y1="11.98" x2="89.9" y2="276.16" xlink:href="#Steel_01"/><linearGradient id="Steel_01-3" x1="251.01" y1="11.98" x2="251.01" y2="276.16" xlink:href="#Steel_01"/><linearGradient id="Steel_01-4" x1="578.25" y1="11.98" x2="578.25" y2="276.16" xlink:href="#Steel_01"/><linearGradient id="Steel_01-5" x1="681.01" y1="11.98" x2="681.01" y2="276.16" xlink:href="#Steel_01"/><linearGradient id="Steel_01-6" x1="811.4" y1="11.98" x2="811.4" y2="276.16" xlink:href="#Steel_01"/><linearGradient id="Steel_01-7" x1="984.71" y1="11.98" x2="984.71" y2="276.16" xlink:href="#Steel_01"/><linearGradient id="Steel_01-8" x1="421.62" y1="11.98" x2="421.62" y2="276.16" xlink:href="#Steel_01"/></defs><g class="cls-1"><g id="Capa_2" data-name="Capa 2"><g id="Layer_1" data-name="Layer 1"><path class="cls-2" d="M167.57,110.39,136.5,133.05c-31.32-37.18-91.17-22.41-91.17,32.34,0,24.45,16.81,51.7,46.86,51.7,16.81,0,40.24-4.33,44.57-29H85.25l20.62-36.42H179a131.27,131.27,0,0,1,.77,13.5c0,59.08-35.91,92.19-88.37,92.19C32.09,257.33.25,211.74,0,165.39,0,118,32.09,71.93,91.43,71.93,122,71.93,143.89,81.1,167.57,110.39Z"/><path class="cls-3" d="M283.43,114.2H240.06v28h53.32l-.06,38.2H240.06v35.14h65.71v38.71H196.26V76H305.77Z"/><path class="cls-4" d="M642.3,76v39.22H600.79V254.27H555.2v-139h-41V76Z"/><path class="cls-5" d="M658.34,75.24h45.33v179H658.34Z"/><path class="cls-6" d="M863.1,133.56c-15-15.79-30.31-20.88-43-20.37-30.31.76-46.86,25.21-46.86,52.46s16.81,51.7,46.86,51.7c13.24,0,31.57-5.61,45.58-23.69l28.78,23.94c-22.16,27-45.33,40.24-74.36,40.24-59.6,0-91.68-44.57-91.68-92.19S760.46,72.7,820.06,72.7c26.23,0,48.38,8.91,70.29,35.39Z"/><path class="cls-7" d="M1012.6,210.72H955.81l-13.5,43.55H893.92l60.87-180h59.08l61.63,180.05h-48.64Zm-29-103.9-4.58,25-11.2,38.45h32.85l-10.7-38.45-4.58-25Z"/><path class="cls-8" d="M514.69,153.7c0-.25-.07-.49-.1-.74a89.49,89.49,0,0,0-6.51-24,93.93,93.93,0,0,0-49.86-49.87c-.61-.26-1.23-.48-1.84-.73l-1.59-.64-1.59-.59q-3.93-1.43-8-2.46l-.29-.08a90.09,90.09,0,0,0-11.3-2.12L421.86,54.89,410.09,72.5l-.76.11a89.32,89.32,0,0,0-24.08,6.51A94.43,94.43,0,0,0,355.46,99.2,96,96,0,0,0,335.26,129a88,88,0,0,0-6.71,24.71L311,165.47l17.6,11.77A87.93,87.93,0,0,0,335.26,202a96,96,0,0,0,20.2,29.8,94.24,94.24,0,0,0,29.79,20.07,89.29,89.29,0,0,0,24.85,6.61L421.87,276l11.77-17.6,1.6-.23,1.13-.16c1.3-.2,2.59-.42,3.88-.67l1.22-.26c.91-.2,1.82-.4,2.72-.62l1.59-.4c.85-.22,1.69-.47,2.53-.71,1-.31,2.07-.65,3.1-1l1.25-.43c1.87-.66,3.73-1.35,5.56-2.14A93.84,93.84,0,0,0,508.08,202a89.5,89.5,0,0,0,6.51-24c0-.24.07-.47.1-.71l17.6-11.77Zm-42.88,33.05A53.53,53.53,0,0,1,460.13,204a55.74,55.74,0,0,1-17.35,11.57,54.87,54.87,0,0,1-42.35,0A55.74,55.74,0,0,1,383.08,204a53.78,53.78,0,0,1-15.93-38.53,52.64,52.64,0,0,1,4.25-21.17,54.76,54.76,0,0,1,29-28.92,54.76,54.76,0,0,1,42.35,0,54.76,54.76,0,0,1,29,28.92,52.65,52.65,0,0,1,4.26,21.17A53.39,53.39,0,0,1,471.81,186.75Z"/><polygon class="cls-9" points="421.67 37.17 383.83 65.36 421.74 0 459.4 65.5 421.67 37.17"/><polygon class="cls-10" points="421.67 37.17 421.74 0 459.4 65.5 421.67 37.17"/><path class="cls-11" d="M514.59,153a89.49,89.49,0,0,0-6.51-24A94.24,94.24,0,0,0,488,99.2a93.28,93.28,0,0,0-21.33-16L448,118a54.57,54.57,0,0,1,12.09,9.07,55.2,55.2,0,0,1,11.68,17.25,52.65,52.65,0,0,1,4.26,21.17A53.84,53.84,0,0,1,460.13,204a55.74,55.74,0,0,1-17.35,11.57,54.87,54.87,0,0,1-42.35,0c-1.3-.56-2.55-1.19-3.79-1.83l-18.58,34.63c2.33,1.23,4.72,2.39,7.19,3.45a89.29,89.29,0,0,0,24.85,6.61L421.87,276l11.77-17.6,1.6-.23,1.13-.16c1.3-.2,2.59-.42,3.88-.67l1.22-.26c.91-.2,1.82-.4,2.72-.62l1.59-.4c.85-.22,1.69-.47,2.53-.71,1-.31,2.07-.65,3.1-1l1.25-.43c1.87-.66,3.73-1.35,5.56-2.14A93.84,93.84,0,0,0,508.08,202a89.5,89.5,0,0,0,6.51-24c0-.24.07-.47.1-.71l17.6-11.77-17.6-11.77C514.66,153.45,514.62,153.21,514.59,153Z"/><g class="cls-12"><path class="cls-13" d="M91.43,75.93c29.75,0,49.79,9.52,70.35,33.73l-24.71,18c-11.55-12.23-27-19.17-43.06-19.17a51.57,51.57,0,0,0-36.62,14.75c-10.5,10.41-16.06,25-16.06,42.13,0,34.87,25.86,55.7,50.86,55.7,28,0,44.8-11.18,48.51-32.34l.82-4.69H92.11l16.1-28.42h67.14c.45,5.63.45,7.66.45,9.5,0,27.41-8.08,50-23.35,65.43-14.77,14.89-35.87,22.76-61,22.76-26.47,0-48.91-9.43-64.89-27.26C12.13,210,4.13,188.44,4,165.39c0-44.45,30-89.46,87.43-89.46m0-4C32.09,71.93,0,118,0,165.39c.25,46.35,32.09,91.94,91.43,91.94,52.46,0,88.37-33.11,88.37-92.19a131.27,131.27,0,0,0-.77-13.5H105.87L85.25,188.06h51.51c-4.33,24.7-27.76,29-44.57,29-30,0-46.86-27.25-46.86-51.7,0-34.28,23.46-52.89,48.69-52.88,15.06,0,30.77,6.64,42.48,20.54l31.07-22.66C143.89,81.1,122,71.93,91.43,71.93Z"/><path class="cls-14" d="M298.79,80l-17.65,30.2H236.06v36h53.31l0,30.2H236.06v43.14h65.71v30.71H200.26V80h98.53m7-4H196.26V254.27H305.77V215.56H240.06V180.42h53.26l.06-38.2H240.06v-28h43.37L305.77,76Z"/><path class="cls-15" d="M638.3,80v31.22H596.79V250.27H559.2v-139h-41V80H638.3m4-4H514.2v39.22h41V254.27h45.59v-139H642.3V76Z"/><path class="cls-16" d="M699.67,79.24v171H662.34v-171h37.33m4-4H658.34v179h45.33v-179Z"/><path class="cls-17" d="M820.06,76.7c26.3,0,45.86,9.33,64.77,31.07L863.2,128c-16-15.48-31.24-18.84-41.42-18.84-.64,0-1.26,0-1.82,0-29.89.75-50.76,24-50.76,56.46,0,14.81,4.65,28.53,13.09,38.63,9.33,11.17,22.39,17.07,37.77,17.07,8.35,0,29-2.23,46.12-22l22.59,18.8c-21.16,24.68-42.49,35.73-68.71,35.73-26.73,0-49.29-9.31-65.22-26.92-14.49-16-22.46-37.76-22.46-61.27s8-45.48,22.47-61.67c16-17.85,38.53-27.28,65.21-27.28m0-4c-59.6,0-91.68,45.32-91.68,93s32.08,92.19,91.68,92.19c29,0,52.2-13.25,74.36-40.24l-28.78-23.94c-14,18.08-32.34,23.69-45.58,23.69-30,0-46.86-24.45-46.86-51.7s16.55-51.7,46.86-52.46c.57,0,1.14,0,1.72,0,12.37,0,27,5.32,41.32,20.41l27.25-25.47C868.44,81.61,846.29,72.7,820.06,72.7Z"/><path class="cls-18" d="M1011,78.22l58.89,172.05h-40.14l-13.36-40.79-.91-2.76H952.86l-.87,2.82-12.63,40.73H899.49l58.17-172H1011m-35.93,52.64-11.14,38.25-1.5,5.12h43.45l-1.41-5.07-10.65-38.28-4.55-24.78-.6-3.28h-8.45l-.6,3.28-4.55,24.76m38.79-56.64H954.79L893.92,254.27h48.39l13.5-43.55h56.79l14.26,43.55h48.64l-61.63-180Zm-46.09,96L979,131.78l4.58-25h1.79l4.58,25,10.7,38.45Z"/><path class="cls-19" d="M421.86,62.09l8.45,12.63,1,1.53,1.81.22a86.16,86.16,0,0,1,10.79,2l.21,0,.09,0c2.58.66,5.14,1.46,7.62,2.36l1.48.55c.52.2,1,.4,1.55.62l.75.29,1,.41a89.8,89.8,0,0,1,47.76,47.77,86.09,86.09,0,0,1,6.22,22.9l.06.45,0,.29L511,156l1.51,1,12.64,8.45-12.64,8.45-1.52,1-.22,1.83,0,.28-.06.39a86.08,86.08,0,0,1-6.21,22.94,89.89,89.89,0,0,1-47.77,47.76c-1.57.68-3.26,1.33-5.31,2.05-.26.1-.53.19-.79.27l-.4.14c-1,.33-2,.64-3,.94-.8.24-1.6.47-2.4.68l-1.53.39c-.86.2-1.73.4-2.59.58l-.49.11-.69.15c-1.15.23-2.36.44-3.69.64l-.76.11-.34,0-.44.06-1.09.16-1.82.22-1,1.52-8.44,12.64-8.45-12.63-1-1.53-1.83-.22a85.61,85.61,0,0,1-23.74-6.32,90.6,90.6,0,0,1-28.55-19.22,92.62,92.62,0,0,1-19.36-28.57,84.62,84.62,0,0,1-6.4-23.6l-.23-1.81-1.52-1-12.63-8.45L330.77,157l1.52-1,.23-1.82a84.62,84.62,0,0,1,6.4-23.6A92.68,92.68,0,0,1,358.28,102,90.94,90.94,0,0,1,386.83,82.8a86,86,0,0,1,23-6.23l.42-.06.31,0,1.83-.22,1-1.53,8.44-12.63m-.15,161.73a57.08,57.08,0,0,0,22.64-4.58,59.91,59.91,0,0,0,18.59-12.39,57.8,57.8,0,0,0,17.13-41.38,56.93,56.93,0,0,0-4.59-22.76,58.82,58.82,0,0,0-31.13-31,58.77,58.77,0,0,0-45.49,0,58.82,58.82,0,0,0-31.13,31,56.92,56.92,0,0,0-4.58,22.76,57.74,57.74,0,0,0,17.12,41.38,59.91,59.91,0,0,0,18.59,12.39,57.6,57.6,0,0,0,22.85,4.58m.15-168.93L410.09,72.5l-.76.11a89.32,89.32,0,0,0-24.08,6.51A94.43,94.43,0,0,0,355.46,99.2,96,96,0,0,0,335.26,129a88,88,0,0,0-6.71,24.71L311,165.47l17.6,11.77A87.93,87.93,0,0,0,335.26,202a96,96,0,0,0,20.2,29.8,94.24,94.24,0,0,0,29.79,20.07,89.29,89.29,0,0,0,24.85,6.61L421.87,276l11.77-17.6,1.6-.23,1.13-.16c1.3-.2,2.59-.42,3.88-.67l1.22-.26c.91-.2,1.82-.4,2.72-.62l1.59-.4c.85-.22,1.69-.47,2.53-.71,1-.31,2.07-.65,3.1-1l1.25-.43c1.87-.66,3.73-1.35,5.56-2.14A93.84,93.84,0,0,0,508.08,202a89.5,89.5,0,0,0,6.51-24c0-.24.07-.47.1-.71l17.6-11.77-17.6-11.77c0-.25-.07-.49-.1-.74a89.49,89.49,0,0,0-6.51-24,93.93,93.93,0,0,0-49.86-49.87c-.61-.26-1.23-.48-1.84-.73l-1.59-.64-1.59-.59q-3.93-1.43-8-2.46l-.29-.08a90.09,90.09,0,0,0-11.3-2.12L421.86,54.89Zm-.15,164.93a53.59,53.59,0,0,1-21.28-4.25A55.74,55.74,0,0,1,383.08,204a53.78,53.78,0,0,1-15.93-38.53,52.64,52.64,0,0,1,4.25-21.17,54.76,54.76,0,0,1,29-28.92,54.76,54.76,0,0,1,42.35,0,54.76,54.76,0,0,1,29,28.92,52.65,52.65,0,0,1,4.26,21.17A53.84,53.84,0,0,1,460.13,204a55.74,55.74,0,0,1-17.35,11.57,53.07,53.07,0,0,1-21.07,4.25Z"/></g></g></g></g></svg>