<svg xmlns="http://www.w3.org/2000/svg" xmlns:xlink="http://www.w3.org/1999/xlink" viewBox="0 0 466 108.56"><defs><style>.cls-1,.cls-2,.cls-3,.cls-4,.cls-6,.cls-7{fill-rule:evenodd;}.cls-1{fill:url(#Degradado_sin_nombre_42);}.cls-2{fill:url(#Degradado_sin_nombre_42-2);}.cls-3{fill:url(#Degradado_sin_nombre_42-3);}.cls-4{fill:url(#Degradado_sin_nombre_42-4);}.cls-5{fill:#fdc621;}.cls-6{fill:url(#Degradado_sin_nombre_43);}.cls-7{fill:url(#Degradado_sin_nombre_44);}</style><linearGradient id="Degradado_sin_nombre_42" x1="7757.55" y1="-11690.49" x2="7757.55" y2="-16193.49" gradientTransform="matrix(0.03, 0, 0, -0.03, -62.26, -323.29)" gradientUnits="userSpaceOnUse"><stop offset="0" stop-color="#c8c9ce"/><stop offset="0.2" stop-color="#b6bbc0"/><stop offset="0.25" stop-color="#a3acb2"/><stop offset="0.29" stop-color="#c7cfd4"/><stop offset="0.4" stop-color="#ecf3f7"/><stop offset="0.63" stop-color="#ecf3f7"/><stop offset="0.75" stop-color="#8e9398"/><stop offset="0.83" stop-color="#abb1b6"/><stop offset="0.85" stop-color="#8e9397"/><stop offset="0.91" stop-color="#707478"/><stop offset="0.97" stop-color="#9c9ea3"/><stop offset="1" stop-color="#c8c9ce"/></linearGradient><linearGradient id="Degradado_sin_nombre_42-2" x1="10328.45" y1="-11690.49" x2="10328.45" y2="-16193.49" xlink:href="#Degradado_sin_nombre_42"/><linearGradient id="Degradado_sin_nombre_42-3" x1="13454.7" y1="-11690.49" x2="13454.7" y2="-16193.49" xlink:href="#Degradado_sin_nombre_42"/><linearGradient id="Degradado_sin_nombre_42-4" x1="17602.27" y1="-11690.49" x2="17602.27" y2="-16193.49" xlink:href="#Degradado_sin_nombre_42"/><linearGradient id="Degradado_sin_nombre_43" x1="2610.26" y1="-14744.91" x2="3743.76" y2="-16011.77" gradientTransform="matrix(0.03, 0, 0, -0.03, -62.26, -323.29)" gradientUnits="userSpaceOnUse"><stop offset="0" stop-color="#c8c9ce"/><stop offset="0.03" stop-color="#9c9fa3"/><stop offset="0.09" stop-color="#707478"/><stop offset="0.15" stop-color="#8d9297"/><stop offset="0.17" stop-color="#abb1b6"/><stop offset="0.25" stop-color="#8e9398"/><stop offset="0.37" stop-color="#ecf3f7"/><stop offset="0.6" stop-color="#ecf3f7"/><stop offset="0.71" stop-color="#c8d0d5"/><stop offset="0.75" stop-color="#a3acb2"/><stop offset="0.8" stop-color="#b5bac0"/><stop offset="1" stop-color="#c8c9ce"/></linearGradient><linearGradient id="Degradado_sin_nombre_44" x1="3653.05" y1="-15825.58" x2="2741.83" y2="-14914.33" gradientTransform="matrix(0.03, 0, 0, -0.03, -62.26, -323.29)" gradientUnits="userSpaceOnUse"><stop offset="0" stop-color="#c8c9ce"/><stop offset="0.2" stop-color="#b6bbc0"/><stop offset="0.25" stop-color="#a3acb2"/><stop offset="0.32" stop-color="#c7cfd4"/><stop offset="0.4" stop-color="#ecf3f7"/><stop offset="0.63" stop-color="#ecf3f7"/><stop offset="0.75" stop-color="#8e9398"/><stop offset="0.83" stop-color="#abb1b6"/><stop offset="0.85" stop-color="#8e9397"/><stop offset="0.91" stop-color="#707478"/><stop offset="0.97" stop-color="#9c9ea3"/><stop offset="1" stop-color="#c8c9ce"/></linearGradient></defs><g id="Capa_2" data-name="Capa 2"><g id="Capa_1-2" data-name="Capa 1"><polygon class="cls-1" points="104.86 108.56 191.9 108.56 191.9 77.64 141.04 77.64 141.04 0.34 104.86 0.34 104.86 108.56"/><polygon class="cls-2" points="236.28 0.34 200.09 0.34 200.09 108.56 236.28 108.56 236.28 0.34"/><polygon class="cls-3" points="325.03 108.56 357.19 108.56 357.19 0.34 321.31 0.34 321.31 48.11 282.82 0.34 248.96 0.34 248.96 89.96 284.83 89.96 284.83 58.62 325.03 108.56"/><polygon class="cls-4" points="397.23 108.56 433.41 108.56 433.41 30.95 466 30.95 466 0.34 365.38 0.34 365.38 30.95 397.23 30.95 397.23 108.56"/><polygon class="cls-5" points="242.01 50.38 242.01 0.11 292.27 0.11 242.01 50.38"/><path class="cls-5" d="M93.57,22a33,33,0,0,0-9.9-12,43.79,43.79,0,0,0-15.23-7.2A76,76,0,0,0,48.72.33H0V29.24H46.1q7.26,0,11.29,3c2.67,2,4,5,4,8.89v.31q0,5.88-4.25,8.89T46,53.36H0v55.2H36.21V79.19H48a73.57,73.57,0,0,0,20-2.55A44.3,44.3,0,0,0,83.52,69a35,35,0,0,0,10-12.59,40,40,0,0,0,3.56-17.25v-.3A37.93,37.93,0,0,0,93.57,22Z"/><polygon class="cls-6" points="36.22 79.19 36.22 66.85 0.03 103.04 0.03 108.56 0.03 108.56 36.21 108.56 36.21 79.19 36.22 79.19"/><polygon class="cls-5" points="242.01 50.26 242.01 0 292.28 0 242.01 50.26"/><path class="cls-5" d="M93.56,21.86A33.41,33.41,0,0,0,83.66,9.8,44.09,44.09,0,0,0,68.42,2.61,76,76,0,0,0,48.71.21H0V29.13H46.08q7.26,0,11.29,3t4,8.89v.31q0,5.88-4.25,8.9c-2.84,2-6.57,3-11.21,3H0v55.2H36.18V79.07H47.94a73.82,73.82,0,0,0,20-2.55A44.52,44.52,0,0,0,83.5,68.87a34.91,34.91,0,0,0,10.06-12.6A39.81,39.81,0,0,0,97.11,39v-.31a38,38,0,0,0-3.55-16.86Z"/><polygon class="cls-7" points="0 108.45 36.18 108.45 36.18 79.07 36.21 79.07 36.21 66.73 0 102.94 0 108.45"/></g></g></svg>